# xmcd
#
# Track frame offsets:
#	150
#	15462
#	32657
#	50265
#	61991
#	78522
#	97934
#	114169
#	133703
#	150094
#	169500
#
# Disc length: 2446 seconds
#
# Revision: 1
# Processed by: cddbd v1.5.2PL0 Copyright (c) Steve Scherf et al.
# Submitted via: audiograbber 1.83.01
#
DISCID=70098c0b
DTITLE=Cowboys On Dope - Electric Sky
DYEAR=2009
DGENRE=
TTITLE0=Another Song About The Weather
TTITLE1=I Am One
TTITLE2=The Wrong Step
TTITLE3=Before I Die With My Boots On
TTITLE4=Too Much For You
TTITLE5=Epileptic High
TTITLE6=Not The One
TTITLE7=Song For The Angels
TTITLE8=Serious Problem
TTITLE9=Good To Be
TTITLE10=Two Days In A Suit
EXTD=Peter Sarach, Wolly Düse, Thorsten Dohle, 
EXTT0=
EXTT1=
EXTT2=
EXTT3=
EXTT4=
EXTT5=
EXTT6=
EXTT7=
EXTT8=
EXTT9=
EXTT10=
PLAYORDER=
